<svg width="61" height="15" viewBox="0 0 61 15" fill="none" xmlns="http://www.w3.org/2000/svg">
<rect x="35" y="1" width="26" height="13" fill="white"/>
<path d="M39.6973 7.61719H40.7871V12.1055C40.2051 12.1289 39.6543 12.041 39.1348 11.8418C38.6191 11.6387 38.168 11.3301 37.7812 10.916C37.3945 10.498 37.0879 9.97461 36.8613 9.3457C36.6348 8.7168 36.5215 7.98828 36.5215 7.16016C36.5215 6.42578 36.6094 5.77344 36.7852 5.20312C36.9609 4.63281 37.1953 4.15234 37.4883 3.76172C37.7852 3.36719 38.127 3.06836 38.5137 2.86523C38.9004 2.66211 39.3047 2.56055 39.7266 2.56055C39.9102 2.56055 40.0898 2.58008 40.2656 2.61914C40.4453 2.6582 40.6348 2.71875 40.834 2.80078L40.3418 3.74414C40.2637 3.71289 40.166 3.68945 40.0488 3.67383C39.9355 3.6543 39.8359 3.64453 39.75 3.64453C39.4922 3.64453 39.2383 3.7207 38.9883 3.87305C38.7383 4.02539 38.5137 4.25 38.3145 4.54688C38.1191 4.84375 37.959 5.21289 37.834 5.6543C37.7129 6.0918 37.6523 6.59766 37.6523 7.17188C37.6523 7.68359 37.7031 8.14648 37.8047 8.56055C37.9062 8.9707 38.0469 9.33008 38.2266 9.63867C38.4062 9.94336 38.6211 10.1953 38.8711 10.3945C39.1211 10.5938 39.3965 10.7363 39.6973 10.8223V7.61719ZM44.4141 2.37891L47.127 12H45.9551L45.5449 10.4473H43.2773L42.873 12H41.7012L44.4141 2.37891ZM45.2754 9.41602L44.6484 7.00781L44.4082 5.89453L44.1797 7.00781L43.5469 9.41602H45.2754ZM48.293 2.30859L50.9883 7.25391L53.6895 2.30859V12H52.5996V7.61719L52.6289 6.43945L52.0078 7.62891L50.9941 9.47461V9.48633L50.9883 9.48047V9.47461L49.9688 7.62305L49.3477 6.43945L49.3828 7.60547V12H48.293V2.30859ZM55.6875 2.66602H58.8281V3.69727H56.7773V7.2832H58.5352V8.31445H56.7773V10.9688H58.8281V12H55.6875V2.66602Z" fill="#191F57"/>
<path d="M0.996094 2.54883C1.66406 2.52148 2.24609 2.58398 2.74219 2.73633C3.23828 2.88477 3.64844 3.10742 3.97266 3.4043C4.29688 3.70117 4.53906 4.0625 4.69922 4.48828C4.85938 4.91406 4.93945 5.38477 4.93945 5.90039C4.93945 6.3418 4.88086 6.75 4.76367 7.125C4.65039 7.5 4.47461 7.83203 4.23633 8.12109C4.00195 8.40625 3.70508 8.64258 3.3457 8.83008C2.99023 9.01758 2.57031 9.14453 2.08594 9.21094V12H0.996094V2.54883ZM2.08594 8.10352C2.33594 8.08008 2.56641 8.01953 2.77734 7.92188C2.98828 7.82031 3.16992 7.67773 3.32227 7.49414C3.47461 7.31055 3.59375 7.08789 3.67969 6.82617C3.76562 6.56055 3.80859 6.25195 3.80859 5.90039C3.80859 5.54883 3.76562 5.24219 3.67969 4.98047C3.59375 4.71484 3.47461 4.49023 3.32227 4.30664C3.16992 4.12305 2.98828 3.98242 2.77734 3.88477C2.56641 3.7832 2.33594 3.7207 2.08594 3.69727V8.10352ZM6.46875 2.66602H7.55859V10.9805H9.9668V12H6.46875V2.66602ZM13.0195 2.37891L15.7324 12H14.5605L14.1504 10.4473H11.8828L11.4785 12H10.3066L13.0195 2.37891ZM13.8809 9.41602L13.2539 7.00781L13.0137 5.89453L12.7852 7.00781L12.1523 9.41602H13.8809ZM16.8984 2.30859L19.834 7.20117L20.4785 8.33789L20.4492 7.21875V2.66602H21.5332V12.1992L18.5918 7.33594L17.9531 6.31641L17.9883 7.33594V12H16.8984V2.30859ZM23.5195 2.66602H26.6602V3.69727H24.6094V7.2832H26.3672V8.31445H24.6094V10.9688H26.6602V12H23.5195V2.66602ZM29.2383 3.69727H27.7734V2.66602H31.793V3.69727H30.3281V12H29.2383V3.69727Z" fill="white"/>
</svg>
